<?xml version="1.0" standalone="no"?>
<!DOCTYPE svg PUBLIC "-//W3C//DTD SVG 20010904//EN"
 "http://www.w3.org/TR/2001/REC-SVG-20010904/DTD/svg10.dtd">
<svg version="1.0" xmlns="http://www.w3.org/2000/svg"
 width="1000.000000pt" height="1000.000000pt" viewBox="0 0 1000.000000 1000.000000"
 preserveAspectRatio="xMidYMid meet">
<metadata>
Created by potrace 1.14, written by Peter Selinger 2001-2017
</metadata>
<g transform="translate(0.000000,1000.000000) scale(0.100000,-0.100000)"
fill="#000000" stroke="none">
<path d="M4705 9994 c-22 -2 -96 -9 -165 -14 -157 -14 -353 -43 -539 -81
-1120 -226 -2147 -846 -2868 -1729 l-94 -115 664 -3 663 -2 525 -1927 c289
-1060 531 -1929 537 -1931 9 -3 12 474 12 1927 l0 1931 760 0 760 0 0 -3130 0
-3130 -892 0 -893 0 -454 1618 c-638 2273 -633 2252 -642 2252 -5 0 -9 -838
-9 -1935 l0 -1935 -451 0 -450 0 15 -21 c43 -62 295 -326 421 -441 376 -342
734 -588 1180 -808 561 -277 1111 -435 1755 -502 190 -20 774 -17 968 5 467
53 925 166 1347 332 148 58 482 220 630 305 437 251 868 595 1190 949 185 203
185 181 1 181 l-156 0 -20 39 c-50 98 -94 314 -121 591 -6 63 -15 387 -19 720
-9 637 -14 707 -59 843 -12 36 -39 92 -60 124 -102 159 -231 197 -641 191
l-205 -3 -3 -1253 -2 -1252 -810 0 -810 0 0 3130 0 3131 1393 -4 c1214 -3
1406 -6 1502 -20 124 -18 233 -40 313 -63 29 -9 55 -14 57 -12 2 2 -50 71
-116 153 -345 433 -721 776 -1169 1070 -209 138 -338 211 -575 326 -526 256
-1050 406 -1665 475 -127 15 -707 27 -805 18z"/>
<path d="M474 7120 c-225 -459 -385 -1028 -451 -1612 -25 -217 -25 -799 0
-1016 66 -584 226 -1153 451 -1612 l71 -145 3 1132 c1 623 1 1643 0 2265 l-3
1133 -71 -145z"/>
<path d="M7397 6873 c-4 -3 -7 -337 -7 -741 l0 -734 253 5 c280 5 320 12 440
74 154 81 260 242 303 463 22 112 19 350 -6 470 -49 239 -176 377 -395 435
-102 27 -568 49 -588 28z"/>
<path d="M9916 5644 c-98 -279 -277 -491 -516 -613 -129 -66 -197 -88 -417
-136 -45 -10 -22 -22 66 -33 189 -25 415 -106 521 -186 148 -111 250 -266 321
-485 31 -97 30 -98 58 89 39 262 46 378 46 725 0 324 -17 591 -43 690 -8 27
-10 23 -36 -51z"/>
</g>
</svg>
